<?xml version="1.0" ?><!DOCTYPE svg  PUBLIC '-//W3C//DTD SVG 1.1//EN'  'http://www.w3.org/Graphics/SVG/1.1/DTD/svg11.dtd'><svg height="512px" style="enable-background:new 0 0 512 512;" version="1.1" viewBox="0 0 512 512" width="512px" xml:space="preserve" xmlns="http://www.w3.org/2000/svg" xmlns:xlink="http://www.w3.org/1999/xlink"><g id="feed__x2C_"><g><path d="M492.871,374.968c0,65.451-53.089,118.482-118.585,118.482H137.149    c-65.477,0-118.546-53.031-118.546-118.482V138.009c0-65.432,53.069-118.483,118.546-118.483h237.137    c65.496,0,118.585,53.051,118.585,118.483V374.968z" style="fill: #e6d5c3;"/><path d="M147.029,404.241c21.817,0,39.522-17.606,39.522-39.32c0-21.733-17.705-39.321-39.522-39.321    c-21.816,0-39.503,17.588-39.503,39.321C107.526,386.635,125.213,404.241,147.029,404.241z" style="fill:#FFFFFF;"/><path d="M246.148,404.512h57.044c0-107.799-87.748-195.479-195.607-195.479V265.8    c37.003,0,71.808,14.386,97.96,40.574C231.714,332.542,246.148,367.408,246.148,404.512z" style="fill:#FFFFFF;"/><path d="M346.922,404.588h57.025c0-163.332-132.924-296.199-296.266-296.199v56.772    C239.587,165.161,346.922,272.569,346.922,404.588z" style="fill:#FFFFFF;"/><path d="M147.029,404.241c21.817,0,39.522-17.606,39.522-39.32c0-21.733-17.705-39.321-39.522-39.321    c-21.816,0-39.503,17.588-39.503,39.321C107.526,386.635,125.213,404.241,147.029,404.241z" style="fill:#FFFFFF;"/><path d="M246.148,404.512h57.044c0-107.799-87.748-195.479-195.607-195.479V265.8    c37.003,0,71.808,14.386,97.96,40.574C231.714,332.542,246.148,367.408,246.148,404.512z" style="fill:#FFFFFF;"/><path d="M346.922,404.588h57.025c0-163.332-132.924-296.199-296.266-296.199v56.772    C239.587,165.161,346.922,272.569,346.922,404.588z" style="fill:#FFFFFF;"/><path d="M147.029,325.6c21.817,0,39.522,17.588,39.522,39.321c0,21.714-17.705,39.32-39.522,39.32    c-21.816,0-39.503-17.606-39.503-39.32C107.526,343.188,125.213,325.6,147.029,325.6 M147.029,315.723    c-27.228,0-49.38,22.07-49.38,49.198s22.152,49.197,49.38,49.197c27.239,0,49.399-22.069,49.399-49.197    S174.268,315.723,147.029,315.723L147.029,315.723z" style="fill:#804203;"/><path d="M107.585,209.033c107.86,0,195.607,87.68,195.607,195.479h-57.044    c0-37.104-14.434-71.97-40.603-98.138c-26.153-26.188-60.957-40.574-97.96-40.574V209.033 M107.585,199.156    c-5.455,0-9.877,4.422-9.877,9.877V265.8c0,5.455,4.422,9.877,9.877,9.877c34.401,0,66.708,13.381,90.972,37.677    c24.322,24.321,37.714,56.694,37.714,91.158c0,5.455,4.422,9.877,9.877,9.877h57.044c5.455,0,9.877-4.422,9.877-9.877    C313.069,291.278,220.89,199.156,107.585,199.156L107.585,199.156z" style="fill:#804203;"/><path d="M107.682,108.389c163.342,0,296.266,132.868,296.266,296.199h-57.025    c0-132.019-107.334-239.427-239.24-239.427V108.389 M107.682,98.512c-5.455,0-9.877,4.422-9.877,9.877v56.772    c0,5.455,4.422,9.877,9.877,9.877c126.471,0,229.363,102.976,229.363,229.55c0,5.455,4.422,9.877,9.877,9.877h57.025    c5.455,0,9.877-4.422,9.877-9.877C413.824,235.817,276.489,98.512,107.682,98.512L107.682,98.512z" style="fill:#804203;"/><path d="M364.039,478.061H147.415c-62.448,0-113.253-50.818-113.253-113.283V148.179    c0-62.454,50.805-113.263,113.253-113.263h216.624c62.459,0,113.272,50.81,113.272,113.263v216.599    C477.312,427.242,426.498,478.061,364.039,478.061z M147.415,44.818c-56.988,0-103.351,46.367-103.351,103.36v216.599    c0,57.004,46.363,103.381,103.351,103.381h216.624c56.998,0,103.37-46.377,103.37-103.381V148.179    c0-56.993-46.372-103.36-103.37-103.36H147.415z" style="fill:#804203;"/></g></g><g id="Layer_1"/></svg>